<svg width="15" height="16" viewBox="0 0 15 16" fill="none" xmlns="http://www.w3.org/2000/svg">
<path d="M5.91317 1.91925H1.45405C0.668666 1.91925 0.0313267 2.61117 0.0289753 3.46636L6.52679e-06 14.002C-0.00235489 14.8608 0.636364 15.5584 1.42508 15.5584H11.1339C11.9209 15.5584 12.5589 14.8636 12.5589 14.0066V10.1272C12.5589 9.90169 12.391 9.71886 12.1839 9.71886H11.1339C10.9267 9.71886 10.7588 9.90169 10.7588 10.1272V13.5983H1.83333L1.79583 3.87936H5.8913C6.09537 3.87936 6.26198 3.70168 6.26624 3.47951L6.28811 2.33611C6.29249 2.1073 6.12335 1.91925 5.91317 1.91925Z" fill="#757575"/>
<path d="M4.56673 11.4011L3.80287 10.5039C3.60635 10.2731 3.61994 9.9114 3.83321 9.69599L10.9772 2.44114L10.0329 1.33208C9.62532 0.853396 9.95601 0.0735138 10.557 0.0960858L14.25 0.234792C14.5811 0.24723 14.8386 0.549631 14.8251 0.910224L14.6778 4.83278C14.6535 5.47781 13.9322 5.78298 13.519 5.323L12.5243 4.21556L5.30671 11.4309C5.09321 11.6444 4.76252 11.631 4.56673 11.4011Z" fill="#757575"/>
</svg>
