<svg width="96" height="96" viewBox="0 0 96 96" fill="none" xmlns="http://www.w3.org/2000/svg">
<g clip-path="url(#clip0)">
<path d="M64.821 51.393C67.169 52.069 69.517 52.412 71.801 52.412C75.328 52.412 78.271 51.606 80.553 50.619C78.353 58.673 73.068 72.57 62.54 74.135C61.565 74.28 60.766 74.985 60.5 75.934L58.199 84.164C58.005 84.86 58.12 85.605 58.517 86.209C58.914 86.813 59.552 87.216 60.267 87.314C61.044 87.42 61.836 87.474 62.621 87.474C75.258 87.474 87.773 74.284 93.054 55.398C96.154 44.318 97.063 27.66 89.427 17.175C85.154 11.308 78.92 8.175 70.898 7.862C70.865 7.861 70.833 7.86 70.8 7.86C60.902 7.86 52.125 14.526 49.455 24.069C47.86 29.774 48.581 35.757 51.487 40.92C54.362 46.025 59.097 49.746 64.821 51.393Z" fill="black"/>
<path d="M2.862 40.919C5.737 46.025 10.472 49.746 16.196 51.393C18.544 52.069 20.892 52.412 23.175 52.412C26.702 52.412 29.646 51.606 31.928 50.619C29.728 58.673 24.443 72.57 13.914 74.135C12.939 74.28 12.141 74.985 11.874 75.934L9.573 84.164C9.379 84.86 9.494 85.605 9.891 86.209C10.287 86.813 10.925 87.216 11.641 87.314C12.417 87.42 13.209 87.474 13.995 87.474C26.632 87.474 39.147 74.284 44.429 55.398C47.528 44.318 48.437 27.66 40.8 17.173C36.528 11.307 30.293 8.173 22.272 7.861C22.239 7.86 22.207 7.859 22.173 7.859C12.276 7.859 3.498 14.525 0.827997 24.068C-0.765002 29.773 -0.043005 35.757 2.862 40.919Z" fill="black"/>
</g>
<defs>
<clipPath id="clip0">
<rect width="95.333" height="95.332" fill="white" transform="translate(95.333 95.332) rotate(180)"/>
</clipPath>
</defs>
</svg>
